<svg width="471" height="61" viewBox="0 0 471 61" fill="none" xmlns="http://www.w3.org/2000/svg">
<path d="M14.55 4.6C17.0233 4.6 18.9133 4.88 20.22 5.44C21.5267 6 22.67 6.60666 23.65 7.26C24.21 7.58667 24.6533 7.84333 24.98 8.03C25.3533 8.17 25.7033 8.24 26.03 8.24C26.4967 8.24 26.8233 7.98333 27.01 7.47C27.2433 6.95666 27.43 6.18666 27.57 5.16H29.18C29.1333 6 29.0633 7.00333 28.97 8.17C28.9233 9.29 28.8767 10.7833 28.83 12.65C28.83 14.5167 28.83 16.9667 28.83 20H27.22C27.08 17.7133 26.5667 15.4967 25.68 13.35C24.84 11.2033 23.58 9.45333 21.9 8.1C20.2667 6.74666 18.1667 6.07 15.6 6.07C13.22 6.07 11.2367 6.79333 9.65 8.24C8.11 9.64 7.34 11.5067 7.34 13.84C7.34 15.8933 7.85333 17.62 8.88 19.02C9.90667 20.3733 11.3067 21.6567 13.08 22.87C14.9 24.0367 16.9533 25.3433 19.24 26.79C21.5733 28.2833 23.6733 29.7767 25.54 31.27C27.4067 32.7167 28.8767 34.3267 29.95 36.1C31.0233 37.8733 31.56 40.02 31.56 42.54C31.56 45.5733 30.8367 48.0933 29.39 50.1C27.99 52.06 26.1 53.53 23.72 54.51C21.34 55.49 18.7267 55.98 15.88 55.98C13.2667 55.98 11.19 55.7 9.65 55.14C8.11 54.58 6.80333 53.9967 5.73 53.39C4.70333 52.7367 3.91 52.41 3.35 52.41C2.88333 52.41 2.53333 52.6667 2.3 53.18C2.11333 53.6933 1.95 54.4633 1.81 55.49H0.2C0.293334 54.4633 0.34 53.2733 0.34 51.92C0.386667 50.52 0.41 48.7 0.41 46.46C0.456667 44.22 0.48 41.3967 0.48 37.99H2.09C2.27667 40.8833 2.79 43.59 3.63 46.11C4.51667 48.63 5.84667 50.66 7.62 52.2C9.44 53.6933 11.8433 54.44 14.83 54.44C16.4167 54.44 17.8867 54.1367 19.24 53.53C20.5933 52.9233 21.69 51.9667 22.53 50.66C23.37 49.3533 23.79 47.6733 23.79 45.62C23.79 43.7067 23.3233 42.0267 22.39 40.58C21.5033 39.1333 20.2433 37.8033 18.61 36.59C17.0233 35.33 15.1567 34.0467 13.01 32.74C10.8167 31.34 8.76333 29.94 6.85 28.54C4.93667 27.14 3.39667 25.5067 2.23 23.64C1.11 21.7733 0.55 19.5567 0.55 16.99C0.55 14.1433 1.20333 11.81 2.51 9.99C3.86333 8.17 5.59 6.81666 7.69 5.93C9.83667 5.04333 12.1233 4.6 14.55 4.6ZM59.1481 8.792C63.3295 8.792 66.9988 9.70933 70.1561 11.544C73.3561 13.3787 75.8308 16.024 77.5801 19.48C79.3295 22.8933 80.2041 27.0533 80.2041 31.96C80.2041 36.7387 79.3081 40.92 77.5161 44.504C75.7241 48.088 73.2281 50.8827 70.0281 52.888C66.8281 54.8933 63.1801 55.896 59.0841 55.896C54.8601 55.896 51.1695 54.9787 48.0121 53.144C44.8548 51.3093 42.4015 48.664 40.6521 45.208C38.9028 41.752 38.0281 37.592 38.0281 32.728C38.0281 27.9493 38.9241 23.768 40.7161 20.184C42.5508 16.6 45.0468 13.8053 48.2041 11.8C51.3615 9.79466 55.0095 8.792 59.1481 8.792ZM58.8921 9.944C56.2468 9.944 53.9428 10.904 51.9801 12.824C50.0175 14.744 48.5028 17.3893 47.4361 20.76C46.3695 24.1307 45.8361 28.0347 45.8361 32.472C45.8361 36.9947 46.4335 40.9413 47.6281 44.312C48.8228 47.64 50.4441 50.2213 52.4921 52.056C54.5401 53.848 56.8228 54.744 59.3401 54.744C61.9855 54.744 64.2681 53.784 66.1881 51.864C68.1508 49.944 69.6655 47.2987 70.7321 43.928C71.8415 40.5147 72.3961 36.6107 72.3961 32.216C72.3961 27.6507 71.7775 23.704 70.5401 20.376C69.3455 17.048 67.7241 14.488 65.6761 12.696C63.6708 10.8613 61.4095 9.944 58.8921 9.944ZM118.028 9.688C117.857 11.3947 117.729 13.0587 117.644 14.68C117.601 16.3013 117.58 17.5387 117.58 18.392C117.58 19.3733 117.601 20.312 117.644 21.208C117.687 22.104 117.729 22.872 117.772 23.512H116.3C115.916 20.3973 115.383 17.9653 114.7 16.216C114.06 14.424 113.079 13.144 111.756 12.376C110.433 11.5653 108.535 11.16 106.06 11.16H102.668C101.303 11.16 100.257 11.288 99.5321 11.544C98.8495 11.7573 98.3801 12.2267 98.1241 12.952C97.8681 13.6347 97.7401 14.7227 97.7401 16.216V48.088C97.7401 49.6667 97.9108 50.8613 98.2521 51.672C98.5935 52.44 99.2335 52.952 100.172 53.208C101.111 53.464 102.497 53.6133 104.332 53.656V55C103.18 54.9147 101.687 54.872 99.8521 54.872C98.0175 54.8293 96.1188 54.808 94.1561 54.808C92.4495 54.808 90.8068 54.8293 89.2281 54.872C87.6921 54.872 86.3908 54.9147 85.3241 55V53.72C86.7748 53.6347 87.8628 53.464 88.5881 53.208C89.3135 52.952 89.7828 52.44 89.9961 51.672C90.2521 50.904 90.3801 49.752 90.3801 48.216V16.472C90.3801 14.8933 90.2521 13.7413 89.9961 13.016C89.7828 12.248 89.2921 11.736 88.5241 11.48C87.7988 11.1813 86.7321 11.0107 85.3241 10.968V9.688C86.9881 9.73067 88.7161 9.77333 90.5081 9.816C92.3428 9.816 94.1348 9.83733 95.8841 9.88C97.6761 9.88 99.3401 9.88 100.876 9.88C102.412 9.88 103.671 9.88 104.652 9.88C106.615 9.88 108.833 9.88 111.308 9.88C113.825 9.83733 116.065 9.77333 118.028 9.688ZM108.236 32.088C108.236 32.088 108.236 32.3013 108.236 32.728C108.236 33.1547 108.236 33.368 108.236 33.368H95.8201C95.8201 33.368 95.8201 33.1547 95.8201 32.728C95.8201 32.3013 95.8201 32.088 95.8201 32.088H108.236ZM109.58 23.64C109.409 26.072 109.324 27.928 109.324 29.208C109.367 30.488 109.388 31.6613 109.388 32.728C109.388 33.7947 109.409 34.968 109.452 36.248C109.495 37.528 109.601 39.384 109.772 41.816H108.3C108.129 40.408 107.873 39.064 107.532 37.784C107.191 36.4613 106.572 35.3947 105.676 34.584C104.78 33.7733 103.436 33.368 101.644 33.368V32.088C103.009 32.088 104.076 31.8107 104.844 31.256C105.655 30.7013 106.273 29.976 106.7 29.08C107.127 28.184 107.425 27.2667 107.596 26.328C107.809 25.3467 107.98 24.4507 108.108 23.64H109.58ZM139.734 9.688V10.968C138.326 11.0107 137.259 11.1813 136.534 11.48C135.808 11.736 135.318 12.248 135.062 13.016C134.806 13.7413 134.678 14.8933 134.678 16.472V48.216C134.678 49.752 134.806 50.904 135.062 51.672C135.318 52.44 135.808 52.952 136.534 53.208C137.259 53.464 138.326 53.6347 139.734 53.72V55C138.71 54.9147 137.408 54.872 135.83 54.872C134.294 54.8293 132.715 54.808 131.094 54.808C129.302 54.808 127.616 54.8293 126.038 54.872C124.502 54.872 123.243 54.9147 122.262 55V53.72C123.712 53.6347 124.8 53.464 125.526 53.208C126.251 52.952 126.72 52.44 126.934 51.672C127.19 50.904 127.318 49.752 127.318 48.216V16.472C127.318 14.8933 127.19 13.7413 126.934 13.016C126.72 12.248 126.23 11.736 125.462 11.48C124.736 11.1813 123.67 11.0107 122.262 10.968V9.688C123.243 9.73067 124.502 9.77333 126.038 9.816C127.616 9.85866 129.302 9.88 131.094 9.88C132.715 9.88 134.294 9.85866 135.83 9.816C137.408 9.77333 138.71 9.73067 139.734 9.688ZM177.403 9.688C177.232 11.3093 177.104 12.888 177.019 14.424C176.976 15.9173 176.955 17.0693 176.955 17.88C176.955 18.6907 176.976 19.4587 177.019 20.184C177.062 20.9093 177.104 21.5067 177.147 21.976H175.675C175.376 19.2453 174.907 17.0907 174.267 15.512C173.67 13.9333 172.752 12.824 171.515 12.184C170.32 11.5013 168.635 11.16 166.459 11.16H162.043C160.678 11.16 159.632 11.288 158.907 11.544C158.224 11.7573 157.755 12.2267 157.499 12.952C157.243 13.6347 157.115 14.7227 157.115 16.216V48.472C157.115 49.9227 157.243 51.0107 157.499 51.736C157.755 52.4613 158.224 52.952 158.907 53.208C159.632 53.4213 160.678 53.528 162.043 53.528H166.203C168.635 53.528 170.555 53.144 171.963 52.376C173.414 51.608 174.502 50.3493 175.227 48.6C175.995 46.8507 176.571 44.4613 176.955 41.432H178.427C178.299 42.6693 178.235 44.2907 178.235 46.296C178.235 47.1493 178.256 48.3867 178.299 50.008C178.384 51.6293 178.512 53.2933 178.683 55C176.507 54.9147 174.054 54.872 171.323 54.872C168.592 54.8293 166.16 54.808 164.027 54.808C163.046 54.808 161.787 54.808 160.251 54.808C158.715 54.808 157.051 54.8293 155.259 54.872C153.51 54.872 151.718 54.8933 149.883 54.936C148.091 54.936 146.363 54.9573 144.699 55V53.72C146.15 53.6347 147.238 53.464 147.963 53.208C148.688 52.952 149.158 52.44 149.371 51.672C149.627 50.904 149.755 49.752 149.755 48.216V16.472C149.755 14.8933 149.627 13.7413 149.371 13.016C149.158 12.248 148.667 11.736 147.899 11.48C147.174 11.1813 146.107 11.0107 144.699 10.968V9.688C146.363 9.73067 148.091 9.77333 149.883 9.816C151.718 9.816 153.51 9.83733 155.259 9.88C157.051 9.88 158.715 9.88 160.251 9.88C161.787 9.88 163.046 9.88 164.027 9.88C165.99 9.88 168.208 9.88 170.683 9.88C173.2 9.83733 175.44 9.77333 177.403 9.688ZM166.779 31.576C166.779 31.576 166.779 31.7893 166.779 32.216C166.779 32.6427 166.779 32.856 166.779 32.856H155.195C155.195 32.856 155.195 32.6427 155.195 32.216C155.195 31.7893 155.195 31.576 155.195 31.576H166.779ZM168.635 23.128C168.464 25.56 168.379 27.416 168.379 28.696C168.422 29.976 168.443 31.1493 168.443 32.216C168.443 33.2827 168.464 34.456 168.507 35.736C168.55 37.016 168.656 38.872 168.827 41.304H167.355C167.142 39.896 166.864 38.552 166.523 37.272C166.182 35.9493 165.563 34.8827 164.667 34.072C163.814 33.2613 162.47 32.856 160.635 32.856V31.576C162 31.576 163.067 31.2987 163.835 30.744C164.646 30.1893 165.264 29.464 165.691 28.568C166.118 27.672 166.416 26.7547 166.587 25.816C166.8 24.8347 166.992 23.9387 167.163 23.128H168.635ZM223.928 4.46C228.501 4.46 232.515 5.46333 235.968 7.47C239.468 9.47666 242.175 12.37 244.088 16.15C246.001 19.8833 246.958 24.4333 246.958 29.8C246.958 35.0267 245.978 39.6 244.018 43.52C242.058 47.44 239.328 50.4967 235.828 52.69C232.328 54.8833 228.338 55.98 223.858 55.98C219.238 55.98 215.201 54.9767 211.748 52.97C208.295 50.9633 205.611 48.07 203.698 44.29C201.785 40.51 200.828 35.96 200.828 30.64C200.828 25.4133 201.808 20.84 203.768 16.92C205.775 13 208.505 9.94333 211.958 7.75C215.411 5.55666 219.401 4.46 223.928 4.46ZM223.648 5.72C220.755 5.72 218.235 6.77 216.088 8.87C213.941 10.97 212.285 13.8633 211.118 17.55C209.951 21.2367 209.368 25.5067 209.368 30.36C209.368 35.3067 210.021 39.6233 211.328 43.31C212.635 46.95 214.408 49.7733 216.648 51.78C218.888 53.74 221.385 54.72 224.138 54.72C227.031 54.72 229.528 53.67 231.628 51.57C233.775 49.47 235.431 46.5767 236.598 42.89C237.811 39.1567 238.418 34.8867 238.418 30.08C238.418 25.0867 237.741 20.77 236.388 17.13C235.081 13.49 233.308 10.69 231.068 8.73C228.875 6.72333 226.401 5.72 223.648 5.72ZM235.548 10.62L236.598 12.02L212.238 49.61L210.978 48.35L235.548 10.62ZM210.348 48.35L211.608 49.61L204.258 60.25L202.788 59.27L210.348 48.35ZM242.828 0.749997L244.158 1.66L237.088 12.02L236.038 10.62L242.828 0.749997ZM292.039 9.688V10.968C291.186 11.1813 290.268 11.7573 289.287 12.696C288.348 13.6347 287.474 15.1493 286.663 17.24L272.135 55.256C271.964 55.256 271.794 55.256 271.623 55.256C271.452 55.256 271.26 55.256 271.047 55.256C270.876 55.256 270.706 55.256 270.535 55.256C270.364 55.256 270.194 55.256 270.023 55.256L254.151 15.064C253.511 13.4853 252.807 12.4187 252.039 11.864C251.271 11.3093 250.546 11.0107 249.863 10.968V9.688C250.844 9.73067 252.039 9.77333 253.447 9.816C254.898 9.85866 256.306 9.88 257.671 9.88C259.42 9.88 261.063 9.85866 262.599 9.816C264.178 9.77333 265.436 9.73067 266.375 9.688V10.968C264.967 11.0107 263.879 11.1813 263.111 11.48C262.343 11.7787 261.916 12.312 261.831 13.08C261.788 13.8053 262.044 14.8933 262.599 16.344L274.439 47.256L273.287 48.536L283.655 21.272C284.636 18.6693 285.127 16.6427 285.127 15.192C285.127 13.6987 284.658 12.632 283.719 11.992C282.78 11.352 281.415 11.0107 279.623 10.968V9.688C280.946 9.73067 282.247 9.77333 283.527 9.816C284.807 9.85866 286.023 9.88 287.175 9.88C288.242 9.88 289.159 9.85866 289.927 9.816C290.695 9.77333 291.399 9.73067 292.039 9.688ZM311.596 9.688V10.968C310.145 11.0107 309.036 11.1813 308.268 11.48C307.543 11.736 307.052 12.248 306.796 13.016C306.54 13.7413 306.412 14.8933 306.412 16.472V48.472C306.412 49.9227 306.519 51.0107 306.732 51.736C306.988 52.4613 307.457 52.952 308.14 53.208C308.865 53.4213 309.889 53.528 311.212 53.528H315.372C317.207 53.528 318.743 53.272 319.98 52.76C321.26 52.248 322.327 51.48 323.18 50.456C324.033 49.432 324.695 48.1093 325.164 46.488C325.633 44.8667 325.996 42.968 326.252 40.792H327.724C327.596 42.1573 327.532 43.9493 327.532 46.168C327.532 47.0213 327.553 48.28 327.596 49.944C327.681 51.5653 327.809 53.2507 327.98 55C325.804 54.9147 323.351 54.872 320.62 54.872C317.889 54.8293 315.457 54.808 313.324 54.808C312.343 54.808 311.084 54.808 309.548 54.808C308.012 54.808 306.348 54.8293 304.556 54.872C302.807 54.872 301.015 54.8933 299.18 54.936C297.388 54.936 295.66 54.9573 293.996 55V53.72C295.447 53.6347 296.535 53.464 297.26 53.208C297.985 52.952 298.455 52.44 298.668 51.672C298.924 50.904 299.052 49.752 299.052 48.216V16.472C299.052 14.8933 298.924 13.7413 298.668 13.016C298.455 12.248 297.964 11.736 297.196 11.48C296.471 11.1813 295.404 11.0107 293.996 10.968V9.688C294.977 9.73067 296.236 9.77333 297.772 9.816C299.351 9.85866 301.036 9.88 302.828 9.88C304.449 9.88 306.049 9.85866 307.628 9.816C309.249 9.77333 310.572 9.73067 311.596 9.688ZM349.593 9.688V10.968C348.185 11.0107 347.118 11.1813 346.393 11.48C345.668 11.736 345.177 12.248 344.921 13.016C344.665 13.7413 344.537 14.8933 344.537 16.472V48.216C344.537 49.752 344.665 50.904 344.921 51.672C345.177 52.44 345.668 52.952 346.393 53.208C347.118 53.464 348.185 53.6347 349.593 53.72V55C348.569 54.9147 347.268 54.872 345.689 54.872C344.153 54.8293 342.574 54.808 340.953 54.808C339.161 54.808 337.476 54.8293 335.897 54.872C334.361 54.872 333.102 54.9147 332.121 55V53.72C333.572 53.6347 334.66 53.464 335.385 53.208C336.11 52.952 336.58 52.44 336.793 51.672C337.049 50.904 337.177 49.752 337.177 48.216V16.472C337.177 14.8933 337.049 13.7413 336.793 13.016C336.58 12.248 336.089 11.736 335.321 11.48C334.596 11.1813 333.529 11.0107 332.121 10.968V9.688C333.102 9.73067 334.361 9.77333 335.897 9.816C337.476 9.85866 339.161 9.88 340.953 9.88C342.574 9.88 344.153 9.85866 345.689 9.816C347.268 9.77333 348.569 9.73067 349.593 9.688ZM369.023 8.92C371.284 8.92 373.012 9.176 374.207 9.688C375.401 10.2 376.447 10.7547 377.343 11.352C377.855 11.6507 378.26 11.8853 378.559 12.056C378.9 12.184 379.22 12.248 379.519 12.248C379.945 12.248 380.244 12.0133 380.415 11.544C380.628 11.0747 380.799 10.3707 380.927 9.432H382.399C382.356 10.2 382.292 11.1173 382.207 12.184C382.164 13.208 382.121 14.5733 382.079 16.28C382.079 17.9867 382.079 20.2267 382.079 23H380.607C380.479 20.9093 380.009 18.8827 379.199 16.92C378.431 14.9573 377.279 13.3573 375.743 12.12C374.249 10.8827 372.329 10.264 369.983 10.264C367.807 10.264 365.993 10.9253 364.543 12.248C363.135 13.528 362.431 15.2347 362.431 17.368C362.431 19.2453 362.9 20.824 363.839 22.104C364.777 23.3413 366.057 24.5147 367.679 25.624C369.343 26.6907 371.22 27.8853 373.311 29.208C375.444 30.5733 377.364 31.9387 379.071 33.304C380.777 34.6267 382.121 36.0987 383.103 37.72C384.084 39.3413 384.575 41.304 384.575 43.608C384.575 46.3813 383.913 48.6853 382.591 50.52C381.311 52.312 379.583 53.656 377.407 54.552C375.231 55.448 372.841 55.896 370.239 55.896C367.849 55.896 365.951 55.64 364.543 55.128C363.135 54.616 361.94 54.0827 360.959 53.528C360.02 52.9307 359.295 52.632 358.783 52.632C358.356 52.632 358.036 52.8667 357.823 53.336C357.652 53.8053 357.503 54.5093 357.375 55.448H355.903C355.988 54.5093 356.031 53.4213 356.031 52.184C356.073 50.904 356.095 49.24 356.095 47.192C356.137 45.144 356.159 42.5627 356.159 39.448H357.631C357.801 42.0933 358.271 44.568 359.039 46.872C359.849 49.176 361.065 51.032 362.687 52.44C364.351 53.8053 366.548 54.488 369.279 54.488C370.729 54.488 372.073 54.2107 373.311 53.656C374.548 53.1013 375.551 52.2267 376.319 51.032C377.087 49.8373 377.471 48.3013 377.471 46.424C377.471 44.6747 377.044 43.1387 376.191 41.816C375.38 40.4933 374.228 39.2773 372.735 38.168C371.284 37.016 369.577 35.8427 367.615 34.648C365.609 33.368 363.732 32.088 361.983 30.808C360.233 29.528 358.825 28.0347 357.759 26.328C356.735 24.6213 356.223 22.5947 356.223 20.248C356.223 17.6453 356.82 15.512 358.015 13.848C359.252 12.184 360.831 10.9467 362.751 10.136C364.713 9.32533 366.804 8.92 369.023 8.92ZM422.763 9.688C422.592 11.3093 422.464 12.888 422.379 14.424C422.336 15.9173 422.315 17.0693 422.315 17.88C422.315 18.6907 422.336 19.4587 422.379 20.184C422.421 20.9093 422.464 21.5067 422.507 21.976H421.035C420.736 19.2453 420.267 17.0907 419.627 15.512C419.029 13.9333 418.112 12.824 416.875 12.184C415.68 11.5013 413.995 11.16 411.819 11.16H407.403C406.037 11.16 404.992 11.288 404.267 11.544C403.584 11.7573 403.115 12.2267 402.859 12.952C402.603 13.6347 402.475 14.7227 402.475 16.216V48.472C402.475 49.9227 402.603 51.0107 402.859 51.736C403.115 52.4613 403.584 52.952 404.267 53.208C404.992 53.4213 406.037 53.528 407.403 53.528H411.563C413.995 53.528 415.915 53.144 417.323 52.376C418.773 51.608 419.861 50.3493 420.587 48.6C421.355 46.8507 421.931 44.4613 422.315 41.432H423.787C423.659 42.6693 423.595 44.2907 423.595 46.296C423.595 47.1493 423.616 48.3867 423.659 50.008C423.744 51.6293 423.872 53.2933 424.043 55C421.867 54.9147 419.413 54.872 416.683 54.872C413.952 54.8293 411.52 54.808 409.387 54.808C408.405 54.808 407.147 54.808 405.611 54.808C404.075 54.808 402.411 54.8293 400.619 54.872C398.869 54.872 397.077 54.8933 395.243 54.936C393.451 54.936 391.723 54.9573 390.059 55V53.72C391.509 53.6347 392.597 53.464 393.323 53.208C394.048 52.952 394.517 52.44 394.731 51.672C394.987 50.904 395.115 49.752 395.115 48.216V16.472C395.115 14.8933 394.987 13.7413 394.731 13.016C394.517 12.248 394.027 11.736 393.259 11.48C392.533 11.1813 391.467 11.0107 390.059 10.968V9.688C391.723 9.73067 393.451 9.77333 395.243 9.816C397.077 9.816 398.869 9.83733 400.619 9.88C402.411 9.88 404.075 9.88 405.611 9.88C407.147 9.88 408.405 9.88 409.387 9.88C411.349 9.88 413.568 9.88 416.043 9.88C418.56 9.83733 420.8 9.77333 422.763 9.688ZM412.139 31.576C412.139 31.576 412.139 31.7893 412.139 32.216C412.139 32.6427 412.139 32.856 412.139 32.856H400.555C400.555 32.856 400.555 32.6427 400.555 32.216C400.555 31.7893 400.555 31.576 400.555 31.576H412.139ZM413.995 23.128C413.824 25.56 413.739 27.416 413.739 28.696C413.781 29.976 413.803 31.1493 413.803 32.216C413.803 33.2827 413.824 34.456 413.867 35.736C413.909 37.016 414.016 38.872 414.187 41.304H412.715C412.501 39.896 412.224 38.552 411.883 37.272C411.541 35.9493 410.923 34.8827 410.027 34.072C409.173 33.2613 407.829 32.856 405.995 32.856V31.576C407.36 31.576 408.427 31.2987 409.195 30.744C410.005 30.1893 410.624 29.464 411.051 28.568C411.477 27.672 411.776 26.7547 411.947 25.816C412.16 24.8347 412.352 23.9387 412.523 23.128H413.995ZM470.455 9.688V10.968C469.004 11.0533 467.916 11.3093 467.191 11.736C466.465 12.1627 465.975 12.8667 465.719 13.848C465.505 14.7867 465.399 16.1307 465.399 17.88V55.256C465.057 55.256 464.716 55.256 464.375 55.256C464.033 55.256 463.671 55.256 463.287 55.256L436.151 15.832V46.552C436.151 48.344 436.279 49.752 436.535 50.776C436.791 51.7573 437.345 52.4613 438.199 52.888C439.052 53.3147 440.353 53.592 442.103 53.72V55C441.292 54.9147 440.247 54.872 438.967 54.872C437.729 54.8293 436.556 54.808 435.447 54.808C434.38 54.808 433.313 54.8293 432.247 54.872C431.18 54.872 430.305 54.9147 429.623 55V53.72C431.031 53.592 432.097 53.336 432.823 52.952C433.548 52.5253 434.039 51.8213 434.295 50.84C434.551 49.8587 434.679 48.5147 434.679 46.808V16.472C434.679 14.8933 434.551 13.7413 434.295 13.016C434.039 12.248 433.548 11.736 432.823 11.48C432.097 11.1813 431.031 11.0107 429.623 10.968V9.688C430.305 9.73067 431.18 9.77333 432.247 9.816C433.313 9.85866 434.38 9.88 435.447 9.88C436.385 9.88 437.303 9.85866 438.199 9.816C439.095 9.77333 439.884 9.73067 440.567 9.688L463.927 43.096V18.136C463.927 16.3013 463.777 14.8933 463.479 13.912C463.223 12.9307 462.668 12.2267 461.815 11.8C460.961 11.3307 459.681 11.0533 457.975 10.968V9.688C458.743 9.73067 459.767 9.77333 461.047 9.816C462.327 9.85866 463.521 9.88 464.631 9.88C465.697 9.88 466.764 9.85866 467.831 9.816C468.897 9.77333 469.772 9.73067 470.455 9.688Z" fill="#668898"/>
</svg>
