<svg width="229" height="164" viewBox="0 0 229 164" fill="none" xmlns="http://www.w3.org/2000/svg">
<rect width="229" height="164" fill="white"/>
<path d="M72.24 35.36C77.44 35.36 81.48 35.88 84.36 36.92C87.24 37.96 89.68 39.04 91.68 40.16C92.64 40.72 93.4 41.16 93.96 41.48C94.6 41.72 95.2 41.84 95.76 41.84C96.56 41.84 97.12 41.4 97.44 40.52C97.84 39.64 98.16 38.32 98.4 36.56H101.16C101.08 38.24 100.96 40.2 100.8 42.44C100.72 44.68 100.64 47.64 100.56 51.32C100.56 55 100.56 59.84 100.56 65.84H97.8C97.48 61.44 96.44 57.16 94.68 53C93 48.84 90.64 45.4 87.6 42.68C84.64 39.96 81.08 38.6 76.92 38.6C73.4 38.6 70.48 39.56 68.16 41.48C65.84 43.4 64.68 46.16 64.68 49.76C64.68 52.72 65.4 55.28 66.84 57.44C68.28 59.52 70.52 61.72 73.56 64.04C76.68 66.36 80.76 69.28 85.8 72.8C89.4 75.28 92.64 77.76 95.52 80.24C98.48 82.72 100.84 85.52 102.6 88.64C104.36 91.76 105.24 95.52 105.24 99.92C105.24 105.28 103.72 109.72 100.68 113.24C97.72 116.76 93.76 119.4 88.8 121.16C83.84 122.84 78.44 123.68 72.6 123.68C67.16 123.68 62.8 123.2 59.52 122.24C56.32 121.28 53.6 120.28 51.36 119.24C49.6 118.12 48.24 117.56 47.28 117.56C46.48 117.56 45.88 118 45.48 118.88C45.16 119.76 44.88 121.08 44.64 122.84H41.88C42.04 120.76 42.12 118.36 42.12 115.64C42.2 112.84 42.24 109.24 42.24 104.84C42.32 100.44 42.36 94.84 42.36 88.04H45.12C45.44 93.64 46.32 98.88 47.76 103.76C49.28 108.64 51.56 112.6 54.6 115.64C57.72 118.6 61.84 120.08 66.96 120.08C69.92 120.08 72.44 119.64 74.52 118.76C76.68 117.8 78.36 116.44 79.56 114.68C80.76 112.92 81.36 110.8 81.36 108.32C81.36 104.96 80.6 102.04 79.08 99.56C77.56 97 75.48 94.64 72.84 92.48C70.28 90.24 67.28 88 63.84 85.76C60.08 83.2 56.56 80.64 53.28 78.08C50 75.52 47.36 72.64 45.36 69.44C43.44 66.24 42.48 62.44 42.48 58.04C42.48 52.76 43.88 48.48 46.68 45.2C49.48 41.84 53.16 39.36 57.72 37.76C62.28 36.16 67.12 35.36 72.24 35.36ZM157.234 35.36C165.714 35.36 173.114 37.08 179.434 40.52C185.834 43.96 190.794 48.92 194.314 55.4C197.834 61.8 199.594 69.6 199.594 78.8C199.594 87.76 197.794 95.6 194.194 102.32C190.594 109.04 185.554 114.28 179.074 118.04C172.674 121.8 165.354 123.68 157.114 123.68C148.634 123.68 141.194 121.96 134.794 118.52C128.474 115.08 123.554 110.12 120.034 103.64C116.514 97.16 114.754 89.36 114.754 80.24C114.754 71.28 116.554 63.44 120.154 56.72C123.834 50 128.834 44.76 135.154 41C141.554 37.24 148.914 35.36 157.234 35.36ZM156.754 37.52C152.274 37.52 148.354 39.32 144.994 42.92C141.714 46.52 139.154 51.48 137.314 57.8C135.554 64.12 134.674 71.44 134.674 79.76C134.674 88.24 135.674 95.64 137.674 101.96C139.754 108.2 142.514 113.04 145.954 116.48C149.474 119.84 153.354 121.52 157.594 121.52C162.074 121.52 165.954 119.72 169.234 116.12C172.594 112.52 175.154 107.56 176.914 101.24C178.754 94.84 179.674 87.52 179.674 79.28C179.674 70.72 178.634 63.32 176.554 57.08C174.554 50.84 171.794 46.04 168.274 42.68C164.834 39.24 160.994 37.52 156.754 37.52ZM176.674 45.56L178.474 47.96L137.314 112.88L135.154 110.72L176.674 45.56ZM133.714 110.72L135.874 112.88L122.794 131.48L120.274 129.8L133.714 110.72ZM189.154 28.52L191.434 30.08L179.314 47.96L177.514 45.56L189.154 28.52Z" fill="#43606D"/>
</svg>
