<svg width="159" height="104" viewBox="0 0 159 104" fill="none" xmlns="http://www.w3.org/2000/svg">
<path d="M31.24 7.35999C36.44 7.35999 40.48 7.87999 43.36 8.91999C46.24 9.95999 48.68 11.04 50.68 12.16C51.64 12.72 52.4 13.16 52.96 13.48C53.6 13.72 54.2 13.84 54.76 13.84C55.56 13.84 56.12 13.4 56.44 12.52C56.84 11.64 57.16 10.32 57.4 8.56H60.16C60.08 10.24 59.96 12.2 59.8 14.44C59.72 16.68 59.64 19.64 59.56 23.32C59.56 27 59.56 31.84 59.56 37.84H56.8C56.48 33.44 55.44 29.16 53.68 25C52 20.84 49.64 17.4 46.6 14.68C43.64 11.96 40.08 10.6 35.92 10.6C32.4 10.6 29.48 11.56 27.16 13.48C24.84 15.4 23.68 18.16 23.68 21.76C23.68 24.72 24.4 27.28 25.84 29.44C27.28 31.52 29.52 33.72 32.56 36.04C35.68 38.36 39.76 41.28 44.8 44.8C48.4 47.28 51.64 49.76 54.52 52.24C57.48 54.72 59.84 57.52 61.6 60.64C63.36 63.76 64.24 67.52 64.24 71.92C64.24 77.28 62.72 81.72 59.68 85.24C56.72 88.76 52.76 91.4 47.8 93.16C42.84 94.84 37.44 95.68 31.6 95.68C26.16 95.68 21.8 95.2 18.52 94.24C15.32 93.28 12.6 92.28 10.36 91.24C8.6 90.12 7.24 89.56 6.28 89.56C5.48 89.56 4.88 90 4.48 90.88C4.16 91.76 3.88 93.08 3.64 94.84H0.88C1.04 92.76 1.12 90.36 1.12 87.64C1.2 84.84 1.24 81.24 1.24 76.84C1.32 72.44 1.36 66.84 1.36 60.04H4.12C4.44 65.64 5.32 70.88 6.76 75.76C8.28 80.64 10.56 84.6 13.6 87.64C16.72 90.6 20.84 92.08 25.96 92.08C28.92 92.08 31.44 91.64 33.52 90.76C35.68 89.8 37.36 88.44 38.56 86.68C39.76 84.92 40.36 82.8 40.36 80.32C40.36 76.96 39.6 74.04 38.08 71.56C36.56 69 34.48 66.64 31.84 64.48C29.28 62.24 26.28 60 22.84 57.76C19.08 55.2 15.56 52.64 12.28 50.08C9 47.52 6.36 44.64 4.36 41.44C2.44 38.24 1.48 34.44 1.48 30.04C1.48 24.76 2.88 20.48 5.68 17.2C8.48 13.84 12.16 11.36 16.72 9.76C21.28 8.15999 26.12 7.35999 31.24 7.35999ZM116.234 7.35999C124.714 7.35999 132.114 9.07999 138.434 12.52C144.834 15.96 149.794 20.92 153.314 27.4C156.834 33.8 158.594 41.6 158.594 50.8C158.594 59.76 156.794 67.6 153.194 74.32C149.594 81.04 144.554 86.28 138.074 90.04C131.674 93.8 124.354 95.68 116.114 95.68C107.634 95.68 100.194 93.96 93.7938 90.52C87.4738 87.08 82.5538 82.12 79.0338 75.64C75.5138 69.16 73.7538 61.36 73.7538 52.24C73.7538 43.28 75.5538 35.44 79.1538 28.72C82.8338 22 87.8338 16.76 94.1538 13C100.554 9.23999 107.914 7.35999 116.234 7.35999ZM115.754 9.51999C111.274 9.51999 107.354 11.32 103.994 14.92C100.714 18.52 98.1538 23.48 96.3138 29.8C94.5538 36.12 93.6738 43.44 93.6738 51.76C93.6738 60.24 94.6738 67.64 96.6738 73.96C98.7538 80.2 101.514 85.04 104.954 88.48C108.474 91.84 112.354 93.52 116.594 93.52C121.074 93.52 124.954 91.72 128.234 88.12C131.594 84.52 134.154 79.56 135.914 73.24C137.754 66.84 138.674 59.52 138.674 51.28C138.674 42.72 137.634 35.32 135.554 29.08C133.554 22.84 130.794 18.04 127.274 14.68C123.834 11.24 119.994 9.51999 115.754 9.51999ZM135.674 17.56L137.474 19.96L96.3138 84.88L94.1538 82.72L135.674 17.56ZM92.7138 82.72L94.8738 84.88L81.7938 103.48L79.2738 101.8L92.7138 82.72ZM148.154 0.519995L150.434 2.08L138.314 19.96L136.514 17.56L148.154 0.519995Z" fill="#6D90A0"/>
</svg>
