<svg width="364" height="177" viewBox="0 0 364 177" fill="none" xmlns="http://www.w3.org/2000/svg">
<path d="M21.2 23.4C24.0267 23.4 26.1867 23.72 27.68 24.36C29.1733 25 30.48 25.6933 31.6 26.44C32.24 26.8133 32.7467 27.1067 33.12 27.32C33.5467 27.48 33.9467 27.56 34.32 27.56C34.8533 27.56 35.2267 27.2667 35.44 26.68C35.7067 26.0933 35.92 25.2133 36.08 24.04H37.92C37.8667 25 37.7867 26.1467 37.68 27.48C37.6267 28.76 37.5733 30.4667 37.52 32.6C37.52 34.7333 37.52 37.5333 37.52 41H35.68C35.52 38.3867 34.9333 35.8533 33.92 33.4C32.96 30.9467 31.52 28.9467 29.6 27.4C27.7333 25.8533 25.3333 25.08 22.4 25.08C19.68 25.08 17.4133 25.9067 15.6 27.56C13.84 29.16 12.96 31.2933 12.96 33.96C12.96 36.3067 13.5467 38.28 14.72 39.88C15.8933 41.4267 17.4933 42.8933 19.52 44.28C21.6 45.6133 23.9467 47.1067 26.56 48.76C29.2267 50.4667 31.6267 52.1733 33.76 53.88C35.8933 55.5333 37.5733 57.3733 38.8 59.4C40.0267 61.4267 40.64 63.88 40.64 66.76C40.64 70.2267 39.8133 73.1067 38.16 75.4C36.56 77.64 34.4 79.32 31.68 80.44C28.96 81.56 25.9733 82.12 22.72 82.12C19.7333 82.12 17.36 81.8 15.6 81.16C13.84 80.52 12.3467 79.8533 11.12 79.16C9.94667 78.4133 9.04 78.04 8.4 78.04C7.86667 78.04 7.46667 78.3333 7.2 78.92C6.98667 79.5067 6.8 80.3867 6.64 81.56H4.8C4.90667 80.3867 4.96 79.0267 4.96 77.48C5.01333 75.88 5.04 73.8 5.04 71.24C5.09333 68.68 5.12 65.4533 5.12 61.56H6.96C7.17333 64.8667 7.76 67.96 8.72 70.84C9.73333 73.72 11.2533 76.04 13.28 77.8C15.36 79.5067 18.1067 80.36 21.52 80.36C23.3333 80.36 25.0133 80.0133 26.56 79.32C28.1067 78.6267 29.36 77.5333 30.32 76.04C31.28 74.5467 31.76 72.6267 31.76 70.28C31.76 68.0933 31.2267 66.1733 30.16 64.52C29.1467 62.8667 27.7067 61.3467 25.84 59.96C24.0267 58.52 21.8933 57.0533 19.44 55.56C16.9333 53.96 14.5867 52.36 12.4 50.76C10.2133 49.16 8.45333 47.2933 7.12 45.16C5.84 43.0267 5.2 40.4933 5.2 37.56C5.2 34.3067 5.94667 31.64 7.44 29.56C8.98667 27.48 10.96 25.9333 13.36 24.92C15.8133 23.9067 18.4267 23.4 21.2 23.4ZM68.695 34.792C72.8763 34.792 76.5457 35.7093 79.703 37.544C82.903 39.3787 85.3777 42.024 87.127 45.48C88.8763 48.8933 89.751 53.0533 89.751 57.96C89.751 62.7387 88.855 66.92 87.063 70.504C85.271 74.088 82.775 76.8827 79.575 78.888C76.375 80.8933 72.727 81.896 68.631 81.896C64.407 81.896 60.7163 80.9787 57.559 79.144C54.4017 77.3093 51.9483 74.664 50.199 71.208C48.4497 67.752 47.575 63.592 47.575 58.728C47.575 53.9493 48.471 49.768 50.263 46.184C52.0977 42.6 54.5937 39.8053 57.751 37.8C60.9083 35.7947 64.5563 34.792 68.695 34.792ZM68.439 35.944C65.7937 35.944 63.4897 36.904 61.527 38.824C59.5643 40.744 58.0497 43.3893 56.983 46.76C55.9163 50.1307 55.383 54.0347 55.383 58.472C55.383 62.9947 55.9803 66.9413 57.175 70.312C58.3697 73.64 59.991 76.2213 62.039 78.056C64.087 79.848 66.3697 80.744 68.887 80.744C71.5323 80.744 73.815 79.784 75.735 77.864C77.6977 75.944 79.2123 73.2987 80.279 69.928C81.3883 66.5147 81.943 62.6107 81.943 58.216C81.943 53.6507 81.3243 49.704 80.087 46.376C78.8923 43.048 77.271 40.488 75.223 38.696C73.2177 36.8613 70.9563 35.944 68.439 35.944ZM127.575 35.688C127.404 37.3947 127.276 39.0587 127.191 40.68C127.148 42.3013 127.127 43.5387 127.127 44.392C127.127 45.3733 127.148 46.312 127.191 47.208C127.234 48.104 127.276 48.872 127.319 49.512H125.847C125.463 46.3973 124.93 43.9653 124.247 42.216C123.607 40.424 122.626 39.144 121.303 38.376C119.98 37.5653 118.082 37.16 115.607 37.16H112.215C110.85 37.16 109.804 37.288 109.079 37.544C108.396 37.7573 107.927 38.2267 107.671 38.952C107.415 39.6347 107.287 40.7227 107.287 42.216V74.088C107.287 75.6667 107.458 76.8613 107.799 77.672C108.14 78.44 108.78 78.952 109.719 79.208C110.658 79.464 112.044 79.6133 113.879 79.656V81C112.727 80.9147 111.234 80.872 109.399 80.872C107.564 80.8293 105.666 80.808 103.703 80.808C101.996 80.808 100.354 80.8293 98.775 80.872C97.239 80.872 95.9377 80.9147 94.871 81V79.72C96.3217 79.6347 97.4097 79.464 98.135 79.208C98.8603 78.952 99.3297 78.44 99.543 77.672C99.799 76.904 99.927 75.752 99.927 74.216V42.472C99.927 40.8933 99.799 39.7413 99.543 39.016C99.3297 38.248 98.839 37.736 98.071 37.48C97.3457 37.1813 96.279 37.0107 94.871 36.968V35.688C96.535 35.7307 98.263 35.7733 100.055 35.816C101.89 35.816 103.682 35.8373 105.431 35.88C107.223 35.88 108.887 35.88 110.423 35.88C111.959 35.88 113.218 35.88 114.199 35.88C116.162 35.88 118.38 35.88 120.855 35.88C123.372 35.8373 125.612 35.7733 127.575 35.688ZM117.783 58.088C117.783 58.088 117.783 58.3013 117.783 58.728C117.783 59.1547 117.783 59.368 117.783 59.368H105.367C105.367 59.368 105.367 59.1547 105.367 58.728C105.367 58.3013 105.367 58.088 105.367 58.088H117.783ZM119.127 49.64C118.956 52.072 118.871 53.928 118.871 55.208C118.914 56.488 118.935 57.6613 118.935 58.728C118.935 59.7947 118.956 60.968 118.999 62.248C119.042 63.528 119.148 65.384 119.319 67.816H117.847C117.676 66.408 117.42 65.064 117.079 63.784C116.738 62.4613 116.119 61.3947 115.223 60.584C114.327 59.7733 112.983 59.368 111.191 59.368V58.088C112.556 58.088 113.623 57.8107 114.391 57.256C115.202 56.7013 115.82 55.976 116.247 55.08C116.674 54.184 116.972 53.2667 117.143 52.328C117.356 51.3467 117.527 50.4507 117.655 49.64H119.127ZM149.281 35.688V36.968C147.873 37.0107 146.806 37.1813 146.081 37.48C145.355 37.736 144.865 38.248 144.609 39.016C144.353 39.7413 144.225 40.8933 144.225 42.472V74.216C144.225 75.752 144.353 76.904 144.609 77.672C144.865 78.44 145.355 78.952 146.081 79.208C146.806 79.464 147.873 79.6347 149.281 79.72V81C148.257 80.9147 146.955 80.872 145.377 80.872C143.841 80.8293 142.262 80.808 140.641 80.808C138.849 80.808 137.163 80.8293 135.585 80.872C134.049 80.872 132.79 80.9147 131.809 81V79.72C133.259 79.6347 134.347 79.464 135.073 79.208C135.798 78.952 136.267 78.44 136.481 77.672C136.737 76.904 136.865 75.752 136.865 74.216V42.472C136.865 40.8933 136.737 39.7413 136.481 39.016C136.267 38.248 135.777 37.736 135.009 37.48C134.283 37.1813 133.217 37.0107 131.809 36.968V35.688C132.79 35.7307 134.049 35.7733 135.585 35.816C137.163 35.8587 138.849 35.88 140.641 35.88C142.262 35.88 143.841 35.8587 145.377 35.816C146.955 35.7733 148.257 35.7307 149.281 35.688ZM186.95 35.688C186.779 37.3093 186.651 38.888 186.566 40.424C186.523 41.9173 186.502 43.0693 186.502 43.88C186.502 44.6907 186.523 45.4587 186.566 46.184C186.609 46.9093 186.651 47.5067 186.694 47.976H185.222C184.923 45.2453 184.454 43.0907 183.814 41.512C183.217 39.9333 182.299 38.824 181.062 38.184C179.867 37.5013 178.182 37.16 176.006 37.16H171.59C170.225 37.16 169.179 37.288 168.454 37.544C167.771 37.7573 167.302 38.2267 167.046 38.952C166.79 39.6347 166.662 40.7227 166.662 42.216V74.472C166.662 75.9227 166.79 77.0107 167.046 77.736C167.302 78.4613 167.771 78.952 168.454 79.208C169.179 79.4213 170.225 79.528 171.59 79.528H175.75C178.182 79.528 180.102 79.144 181.51 78.376C182.961 77.608 184.049 76.3493 184.774 74.6C185.542 72.8507 186.118 70.4613 186.502 67.432H187.974C187.846 68.6693 187.782 70.2907 187.782 72.296C187.782 73.1493 187.803 74.3867 187.846 76.008C187.931 77.6293 188.059 79.2933 188.23 81C186.054 80.9147 183.601 80.872 180.87 80.872C178.139 80.8293 175.707 80.808 173.574 80.808C172.593 80.808 171.334 80.808 169.798 80.808C168.262 80.808 166.598 80.8293 164.806 80.872C163.057 80.872 161.265 80.8933 159.43 80.936C157.638 80.936 155.91 80.9573 154.246 81V79.72C155.697 79.6347 156.785 79.464 157.51 79.208C158.235 78.952 158.705 78.44 158.918 77.672C159.174 76.904 159.302 75.752 159.302 74.216V42.472C159.302 40.8933 159.174 39.7413 158.918 39.016C158.705 38.248 158.214 37.736 157.446 37.48C156.721 37.1813 155.654 37.0107 154.246 36.968V35.688C155.91 35.7307 157.638 35.7733 159.43 35.816C161.265 35.816 163.057 35.8373 164.806 35.88C166.598 35.88 168.262 35.88 169.798 35.88C171.334 35.88 172.593 35.88 173.574 35.88C175.537 35.88 177.755 35.88 180.23 35.88C182.747 35.8373 184.987 35.7733 186.95 35.688ZM176.326 57.576C176.326 57.576 176.326 57.7893 176.326 58.216C176.326 58.6427 176.326 58.856 176.326 58.856H164.742C164.742 58.856 164.742 58.6427 164.742 58.216C164.742 57.7893 164.742 57.576 164.742 57.576H176.326ZM178.182 49.128C178.011 51.56 177.926 53.416 177.926 54.696C177.969 55.976 177.99 57.1493 177.99 58.216C177.99 59.2827 178.011 60.456 178.054 61.736C178.097 63.016 178.203 64.872 178.374 67.304H176.902C176.689 65.896 176.411 64.552 176.07 63.272C175.729 61.9493 175.11 60.8827 174.214 60.072C173.361 59.2613 172.017 58.856 170.182 58.856V57.576C171.547 57.576 172.614 57.2987 173.382 56.744C174.193 56.1893 174.811 55.464 175.238 54.568C175.665 53.672 175.963 52.7547 176.134 51.816C176.347 50.8347 176.539 49.9387 176.71 49.128H178.182Z" fill="#668898"/>
<path d="M111.4 104.24C116.627 104.24 121.213 105.387 125.16 107.68C129.16 109.973 132.253 113.28 134.44 117.6C136.627 121.867 137.72 127.067 137.72 133.2C137.72 139.173 136.6 144.4 134.36 148.88C132.12 153.36 129 156.853 125 159.36C121 161.867 116.44 163.12 111.32 163.12C106.04 163.12 101.427 161.973 97.48 159.68C93.5333 157.387 90.4667 154.08 88.28 149.76C86.0933 145.44 85 140.24 85 134.16C85 128.187 86.12 122.96 88.36 118.48C90.6533 114 93.7733 110.507 97.72 108C101.667 105.493 106.227 104.24 111.4 104.24ZM111.08 105.68C107.773 105.68 104.893 106.88 102.44 109.28C99.9867 111.68 98.0933 114.987 96.76 119.2C95.4267 123.413 94.76 128.293 94.76 133.84C94.76 139.493 95.5067 144.427 97 148.64C98.4933 152.8 100.52 156.027 103.08 158.32C105.64 160.56 108.493 161.68 111.64 161.68C114.947 161.68 117.8 160.48 120.2 158.08C122.653 155.68 124.547 152.373 125.88 148.16C127.267 143.893 127.96 139.013 127.96 133.52C127.96 127.813 127.187 122.88 125.64 118.72C124.147 114.56 122.12 111.36 119.56 109.12C117.053 106.827 114.227 105.68 111.08 105.68ZM124.68 111.28L125.88 112.88L98.04 155.84L96.6 154.4L124.68 111.28ZM95.88 154.4L97.32 155.84L88.92 168L87.24 166.88L95.88 154.4ZM133 100L134.52 101.04L126.44 112.88L125.24 111.28L133 100ZM183.289 116.688V117.968C182.436 118.181 181.518 118.757 180.537 119.696C179.598 120.635 178.724 122.149 177.913 124.24L163.385 162.256C163.214 162.256 163.044 162.256 162.873 162.256C162.702 162.256 162.51 162.256 162.297 162.256C162.126 162.256 161.956 162.256 161.785 162.256C161.614 162.256 161.444 162.256 161.273 162.256L145.401 122.064C144.761 120.485 144.057 119.419 143.289 118.864C142.521 118.309 141.796 118.011 141.113 117.968V116.688C142.094 116.731 143.289 116.773 144.697 116.816C146.148 116.859 147.556 116.88 148.921 116.88C150.67 116.88 152.313 116.859 153.849 116.816C155.428 116.773 156.686 116.731 157.625 116.688V117.968C156.217 118.011 155.129 118.181 154.361 118.48C153.593 118.779 153.166 119.312 153.081 120.08C153.038 120.805 153.294 121.893 153.849 123.344L165.689 154.256L164.537 155.536L174.905 128.272C175.886 125.669 176.377 123.643 176.377 122.192C176.377 120.699 175.908 119.632 174.969 118.992C174.03 118.352 172.665 118.011 170.873 117.968V116.688C172.196 116.731 173.497 116.773 174.777 116.816C176.057 116.859 177.273 116.88 178.425 116.88C179.492 116.88 180.409 116.859 181.177 116.816C181.945 116.773 182.649 116.731 183.289 116.688ZM202.846 116.688V117.968C201.395 118.011 200.286 118.181 199.518 118.48C198.793 118.736 198.302 119.248 198.046 120.016C197.79 120.741 197.662 121.893 197.662 123.472V155.472C197.662 156.923 197.769 158.011 197.982 158.736C198.238 159.461 198.707 159.952 199.39 160.208C200.115 160.421 201.139 160.528 202.462 160.528H206.622C208.457 160.528 209.993 160.272 211.23 159.76C212.51 159.248 213.577 158.48 214.43 157.456C215.283 156.432 215.945 155.109 216.414 153.488C216.883 151.867 217.246 149.968 217.502 147.792H218.974C218.846 149.157 218.782 150.949 218.782 153.168C218.782 154.021 218.803 155.28 218.846 156.944C218.931 158.565 219.059 160.251 219.23 162C217.054 161.915 214.601 161.872 211.87 161.872C209.139 161.829 206.707 161.808 204.574 161.808C203.593 161.808 202.334 161.808 200.798 161.808C199.262 161.808 197.598 161.829 195.806 161.872C194.057 161.872 192.265 161.893 190.43 161.936C188.638 161.936 186.91 161.957 185.246 162V160.72C186.697 160.635 187.785 160.464 188.51 160.208C189.235 159.952 189.705 159.44 189.918 158.672C190.174 157.904 190.302 156.752 190.302 155.216V123.472C190.302 121.893 190.174 120.741 189.918 120.016C189.705 119.248 189.214 118.736 188.446 118.48C187.721 118.181 186.654 118.011 185.246 117.968V116.688C186.227 116.731 187.486 116.773 189.022 116.816C190.601 116.859 192.286 116.88 194.078 116.88C195.699 116.88 197.299 116.859 198.878 116.816C200.499 116.773 201.822 116.731 202.846 116.688ZM240.843 116.688V117.968C239.435 118.011 238.368 118.181 237.643 118.48C236.918 118.736 236.427 119.248 236.171 120.016C235.915 120.741 235.787 121.893 235.787 123.472V155.216C235.787 156.752 235.915 157.904 236.171 158.672C236.427 159.44 236.918 159.952 237.643 160.208C238.368 160.464 239.435 160.635 240.843 160.72V162C239.819 161.915 238.518 161.872 236.939 161.872C235.403 161.829 233.824 161.808 232.203 161.808C230.411 161.808 228.726 161.829 227.147 161.872C225.611 161.872 224.352 161.915 223.371 162V160.72C224.822 160.635 225.91 160.464 226.635 160.208C227.36 159.952 227.83 159.44 228.043 158.672C228.299 157.904 228.427 156.752 228.427 155.216V123.472C228.427 121.893 228.299 120.741 228.043 120.016C227.83 119.248 227.339 118.736 226.571 118.48C225.846 118.181 224.779 118.011 223.371 117.968V116.688C224.352 116.731 225.611 116.773 227.147 116.816C228.726 116.859 230.411 116.88 232.203 116.88C233.824 116.88 235.403 116.859 236.939 116.816C238.518 116.773 239.819 116.731 240.843 116.688ZM260.273 115.92C262.534 115.92 264.262 116.176 265.457 116.688C266.651 117.2 267.697 117.755 268.593 118.352C269.105 118.651 269.51 118.885 269.809 119.056C270.15 119.184 270.47 119.248 270.769 119.248C271.195 119.248 271.494 119.013 271.665 118.544C271.878 118.075 272.049 117.371 272.177 116.432H273.649C273.606 117.2 273.542 118.117 273.457 119.184C273.414 120.208 273.371 121.573 273.329 123.28C273.329 124.987 273.329 127.227 273.329 130H271.857C271.729 127.909 271.259 125.883 270.449 123.92C269.681 121.957 268.529 120.357 266.993 119.12C265.499 117.883 263.579 117.264 261.233 117.264C259.057 117.264 257.243 117.925 255.793 119.248C254.385 120.528 253.681 122.235 253.681 124.368C253.681 126.245 254.15 127.824 255.089 129.104C256.027 130.341 257.307 131.515 258.929 132.624C260.593 133.691 262.47 134.885 264.561 136.208C266.694 137.573 268.614 138.939 270.321 140.304C272.027 141.627 273.371 143.099 274.353 144.72C275.334 146.341 275.825 148.304 275.825 150.608C275.825 153.381 275.163 155.685 273.841 157.52C272.561 159.312 270.833 160.656 268.657 161.552C266.481 162.448 264.091 162.896 261.489 162.896C259.099 162.896 257.201 162.64 255.793 162.128C254.385 161.616 253.19 161.083 252.209 160.528C251.27 159.931 250.545 159.632 250.033 159.632C249.606 159.632 249.286 159.867 249.073 160.336C248.902 160.805 248.753 161.509 248.625 162.448H247.153C247.238 161.509 247.281 160.421 247.281 159.184C247.323 157.904 247.345 156.24 247.345 154.192C247.387 152.144 247.409 149.563 247.409 146.448H248.881C249.051 149.093 249.521 151.568 250.289 153.872C251.099 156.176 252.315 158.032 253.937 159.44C255.601 160.805 257.798 161.488 260.529 161.488C261.979 161.488 263.323 161.211 264.561 160.656C265.798 160.101 266.801 159.227 267.569 158.032C268.337 156.837 268.721 155.301 268.721 153.424C268.721 151.675 268.294 150.139 267.441 148.816C266.63 147.493 265.478 146.277 263.985 145.168C262.534 144.016 260.827 142.843 258.865 141.648C256.859 140.368 254.982 139.088 253.233 137.808C251.483 136.528 250.075 135.035 249.009 133.328C247.985 131.621 247.473 129.595 247.473 127.248C247.473 124.645 248.07 122.512 249.265 120.848C250.502 119.184 252.081 117.947 254.001 117.136C255.963 116.325 258.054 115.92 260.273 115.92ZM314.013 116.688C313.842 118.309 313.714 119.888 313.629 121.424C313.586 122.917 313.565 124.069 313.565 124.88C313.565 125.691 313.586 126.459 313.629 127.184C313.671 127.909 313.714 128.507 313.757 128.976H312.285C311.986 126.245 311.517 124.091 310.877 122.512C310.279 120.933 309.362 119.824 308.125 119.184C306.93 118.501 305.245 118.16 303.069 118.16H298.653C297.287 118.16 296.242 118.288 295.517 118.544C294.834 118.757 294.365 119.227 294.109 119.952C293.853 120.635 293.725 121.723 293.725 123.216V155.472C293.725 156.923 293.853 158.011 294.109 158.736C294.365 159.461 294.834 159.952 295.517 160.208C296.242 160.421 297.287 160.528 298.653 160.528H302.813C305.245 160.528 307.165 160.144 308.573 159.376C310.023 158.608 311.111 157.349 311.837 155.6C312.605 153.851 313.181 151.461 313.565 148.432H315.037C314.909 149.669 314.845 151.291 314.845 153.296C314.845 154.149 314.866 155.387 314.909 157.008C314.994 158.629 315.122 160.293 315.293 162C313.117 161.915 310.663 161.872 307.933 161.872C305.202 161.829 302.77 161.808 300.637 161.808C299.655 161.808 298.397 161.808 296.861 161.808C295.325 161.808 293.661 161.829 291.869 161.872C290.119 161.872 288.327 161.893 286.493 161.936C284.701 161.936 282.973 161.957 281.309 162V160.72C282.759 160.635 283.847 160.464 284.573 160.208C285.298 159.952 285.767 159.44 285.981 158.672C286.237 157.904 286.365 156.752 286.365 155.216V123.472C286.365 121.893 286.237 120.741 285.981 120.016C285.767 119.248 285.277 118.736 284.509 118.48C283.783 118.181 282.717 118.011 281.309 117.968V116.688C282.973 116.731 284.701 116.773 286.493 116.816C288.327 116.816 290.119 116.837 291.869 116.88C293.661 116.88 295.325 116.88 296.861 116.88C298.397 116.88 299.655 116.88 300.637 116.88C302.599 116.88 304.818 116.88 307.293 116.88C309.81 116.837 312.05 116.773 314.013 116.688ZM303.389 138.576C303.389 138.576 303.389 138.789 303.389 139.216C303.389 139.643 303.389 139.856 303.389 139.856H291.805C291.805 139.856 291.805 139.643 291.805 139.216C291.805 138.789 291.805 138.576 291.805 138.576H303.389ZM305.245 130.128C305.074 132.56 304.989 134.416 304.989 135.696C305.031 136.976 305.053 138.149 305.053 139.216C305.053 140.283 305.074 141.456 305.117 142.736C305.159 144.016 305.266 145.872 305.437 148.304H303.965C303.751 146.896 303.474 145.552 303.133 144.272C302.791 142.949 302.173 141.883 301.277 141.072C300.423 140.261 299.079 139.856 297.245 139.856V138.576C298.61 138.576 299.677 138.299 300.445 137.744C301.255 137.189 301.874 136.464 302.301 135.568C302.727 134.672 303.026 133.755 303.197 132.816C303.41 131.835 303.602 130.939 303.773 130.128H305.245ZM361.705 116.688V117.968C360.254 118.053 359.166 118.309 358.441 118.736C357.715 119.163 357.225 119.867 356.969 120.848C356.755 121.787 356.649 123.131 356.649 124.88V162.256C356.307 162.256 355.966 162.256 355.625 162.256C355.283 162.256 354.921 162.256 354.537 162.256L327.401 122.832V153.552C327.401 155.344 327.529 156.752 327.785 157.776C328.041 158.757 328.595 159.461 329.449 159.888C330.302 160.315 331.603 160.592 333.353 160.72V162C332.542 161.915 331.497 161.872 330.217 161.872C328.979 161.829 327.806 161.808 326.697 161.808C325.63 161.808 324.563 161.829 323.497 161.872C322.43 161.872 321.555 161.915 320.873 162V160.72C322.281 160.592 323.347 160.336 324.073 159.952C324.798 159.525 325.289 158.821 325.545 157.84C325.801 156.859 325.929 155.515 325.929 153.808V123.472C325.929 121.893 325.801 120.741 325.545 120.016C325.289 119.248 324.798 118.736 324.073 118.48C323.347 118.181 322.281 118.011 320.873 117.968V116.688C321.555 116.731 322.43 116.773 323.497 116.816C324.563 116.859 325.63 116.88 326.697 116.88C327.635 116.88 328.553 116.859 329.449 116.816C330.345 116.773 331.134 116.731 331.817 116.688L355.177 150.096V125.136C355.177 123.301 355.027 121.893 354.729 120.912C354.473 119.931 353.918 119.227 353.065 118.8C352.211 118.331 350.931 118.053 349.225 117.968V116.688C349.993 116.731 351.017 116.773 352.297 116.816C353.577 116.859 354.771 116.88 355.881 116.88C356.947 116.88 358.014 116.859 359.081 116.816C360.147 116.773 361.022 116.731 361.705 116.688Z" fill="#668898"/>
</svg>
