<svg width="417" height="193" viewBox="0 0 417 193" fill="none" xmlns="http://www.w3.org/2000/svg">
<rect width="417" height="193" fill="white"/>
<path d="M45.2 23.4C48.0267 23.4 50.1867 23.72 51.68 24.36C53.1733 25 54.48 25.6933 55.6 26.44C56.24 26.8133 56.7467 27.1067 57.12 27.32C57.5467 27.48 57.9467 27.56 58.32 27.56C58.8533 27.56 59.2267 27.2667 59.44 26.68C59.7067 26.0933 59.92 25.2133 60.08 24.04H61.92C61.8667 25 61.7867 26.1467 61.68 27.48C61.6267 28.76 61.5733 30.4667 61.52 32.6C61.52 34.7333 61.52 37.5333 61.52 41H59.68C59.52 38.3867 58.9333 35.8533 57.92 33.4C56.96 30.9467 55.52 28.9467 53.6 27.4C51.7333 25.8533 49.3333 25.08 46.4 25.08C43.68 25.08 41.4133 25.9067 39.6 27.56C37.84 29.16 36.96 31.2933 36.96 33.96C36.96 36.3067 37.5467 38.28 38.72 39.88C39.8933 41.4267 41.4933 42.8933 43.52 44.28C45.6 45.6133 47.9467 47.1067 50.56 48.76C53.2267 50.4667 55.6267 52.1733 57.76 53.88C59.8933 55.5333 61.5733 57.3733 62.8 59.4C64.0267 61.4267 64.64 63.88 64.64 66.76C64.64 70.2267 63.8133 73.1067 62.16 75.4C60.56 77.64 58.4 79.32 55.68 80.44C52.96 81.56 49.9733 82.12 46.72 82.12C43.7333 82.12 41.36 81.8 39.6 81.16C37.84 80.52 36.3467 79.8533 35.12 79.16C33.9467 78.4133 33.04 78.04 32.4 78.04C31.8667 78.04 31.4667 78.3333 31.2 78.92C30.9867 79.5067 30.8 80.3867 30.64 81.56H28.8C28.9067 80.3867 28.96 79.0267 28.96 77.48C29.0133 75.88 29.04 73.8 29.04 71.24C29.0933 68.68 29.12 65.4533 29.12 61.56H30.96C31.1733 64.8667 31.76 67.96 32.72 70.84C33.7333 73.72 35.2533 76.04 37.28 77.8C39.36 79.5067 42.1067 80.36 45.52 80.36C47.3333 80.36 49.0133 80.0133 50.56 79.32C52.1067 78.6267 53.36 77.5333 54.32 76.04C55.28 74.5467 55.76 72.6267 55.76 70.28C55.76 68.0933 55.2267 66.1733 54.16 64.52C53.1467 62.8667 51.7067 61.3467 49.84 59.96C48.0267 58.52 45.8933 57.0533 43.44 55.56C40.9333 53.96 38.5867 52.36 36.4 50.76C34.2133 49.16 32.4533 47.2933 31.12 45.16C29.84 43.0267 29.2 40.4933 29.2 37.56C29.2 34.3067 29.9467 31.64 31.44 29.56C32.9867 27.48 34.96 25.9333 37.36 24.92C39.8133 23.9067 42.4267 23.4 45.2 23.4ZM92.695 34.792C96.8763 34.792 100.546 35.7093 103.703 37.544C106.903 39.3787 109.378 42.024 111.127 45.48C112.876 48.8933 113.751 53.0533 113.751 57.96C113.751 62.7387 112.855 66.92 111.063 70.504C109.271 74.088 106.775 76.8827 103.575 78.888C100.375 80.8933 96.727 81.896 92.631 81.896C88.407 81.896 84.7163 80.9787 81.559 79.144C78.4017 77.3093 75.9483 74.664 74.199 71.208C72.4497 67.752 71.575 63.592 71.575 58.728C71.575 53.9493 72.471 49.768 74.263 46.184C76.0977 42.6 78.5937 39.8053 81.751 37.8C84.9083 35.7947 88.5563 34.792 92.695 34.792ZM92.439 35.944C89.7937 35.944 87.4897 36.904 85.527 38.824C83.5643 40.744 82.0497 43.3893 80.983 46.76C79.9163 50.1307 79.383 54.0347 79.383 58.472C79.383 62.9947 79.9803 66.9413 81.175 70.312C82.3697 73.64 83.991 76.2213 86.039 78.056C88.087 79.848 90.3697 80.744 92.887 80.744C95.5323 80.744 97.815 79.784 99.735 77.864C101.698 75.944 103.212 73.2987 104.279 69.928C105.388 66.5147 105.943 62.6107 105.943 58.216C105.943 53.6507 105.324 49.704 104.087 46.376C102.892 43.048 101.271 40.488 99.223 38.696C97.2177 36.8613 94.9563 35.944 92.439 35.944ZM151.575 35.688C151.404 37.3947 151.276 39.0587 151.191 40.68C151.148 42.3013 151.127 43.5387 151.127 44.392C151.127 45.3733 151.148 46.312 151.191 47.208C151.234 48.104 151.276 48.872 151.319 49.512H149.847C149.463 46.3973 148.93 43.9653 148.247 42.216C147.607 40.424 146.626 39.144 145.303 38.376C143.98 37.5653 142.082 37.16 139.607 37.16H136.215C134.85 37.16 133.804 37.288 133.079 37.544C132.396 37.7573 131.927 38.2267 131.671 38.952C131.415 39.6347 131.287 40.7227 131.287 42.216V74.088C131.287 75.6667 131.458 76.8613 131.799 77.672C132.14 78.44 132.78 78.952 133.719 79.208C134.658 79.464 136.044 79.6133 137.879 79.656V81C136.727 80.9147 135.234 80.872 133.399 80.872C131.564 80.8293 129.666 80.808 127.703 80.808C125.996 80.808 124.354 80.8293 122.775 80.872C121.239 80.872 119.938 80.9147 118.871 81V79.72C120.322 79.6347 121.41 79.464 122.135 79.208C122.86 78.952 123.33 78.44 123.543 77.672C123.799 76.904 123.927 75.752 123.927 74.216V42.472C123.927 40.8933 123.799 39.7413 123.543 39.016C123.33 38.248 122.839 37.736 122.071 37.48C121.346 37.1813 120.279 37.0107 118.871 36.968V35.688C120.535 35.7307 122.263 35.7733 124.055 35.816C125.89 35.816 127.682 35.8373 129.431 35.88C131.223 35.88 132.887 35.88 134.423 35.88C135.959 35.88 137.218 35.88 138.199 35.88C140.162 35.88 142.38 35.88 144.855 35.88C147.372 35.8373 149.612 35.7733 151.575 35.688ZM141.783 58.088C141.783 58.088 141.783 58.3013 141.783 58.728C141.783 59.1547 141.783 59.368 141.783 59.368H129.367C129.367 59.368 129.367 59.1547 129.367 58.728C129.367 58.3013 129.367 58.088 129.367 58.088H141.783ZM143.127 49.64C142.956 52.072 142.871 53.928 142.871 55.208C142.914 56.488 142.935 57.6613 142.935 58.728C142.935 59.7947 142.956 60.968 142.999 62.248C143.042 63.528 143.148 65.384 143.319 67.816H141.847C141.676 66.408 141.42 65.064 141.079 63.784C140.738 62.4613 140.119 61.3947 139.223 60.584C138.327 59.7733 136.983 59.368 135.191 59.368V58.088C136.556 58.088 137.623 57.8107 138.391 57.256C139.202 56.7013 139.82 55.976 140.247 55.08C140.674 54.184 140.972 53.2667 141.143 52.328C141.356 51.3467 141.527 50.4507 141.655 49.64H143.127ZM173.281 35.688V36.968C171.873 37.0107 170.806 37.1813 170.081 37.48C169.355 37.736 168.865 38.248 168.609 39.016C168.353 39.7413 168.225 40.8933 168.225 42.472V74.216C168.225 75.752 168.353 76.904 168.609 77.672C168.865 78.44 169.355 78.952 170.081 79.208C170.806 79.464 171.873 79.6347 173.281 79.72V81C172.257 80.9147 170.955 80.872 169.377 80.872C167.841 80.8293 166.262 80.808 164.641 80.808C162.849 80.808 161.163 80.8293 159.585 80.872C158.049 80.872 156.79 80.9147 155.809 81V79.72C157.259 79.6347 158.347 79.464 159.073 79.208C159.798 78.952 160.267 78.44 160.481 77.672C160.737 76.904 160.865 75.752 160.865 74.216V42.472C160.865 40.8933 160.737 39.7413 160.481 39.016C160.267 38.248 159.777 37.736 159.009 37.48C158.283 37.1813 157.217 37.0107 155.809 36.968V35.688C156.79 35.7307 158.049 35.7733 159.585 35.816C161.163 35.8587 162.849 35.88 164.641 35.88C166.262 35.88 167.841 35.8587 169.377 35.816C170.955 35.7733 172.257 35.7307 173.281 35.688ZM210.95 35.688C210.779 37.3093 210.651 38.888 210.566 40.424C210.523 41.9173 210.502 43.0693 210.502 43.88C210.502 44.6907 210.523 45.4587 210.566 46.184C210.609 46.9093 210.651 47.5067 210.694 47.976H209.222C208.923 45.2453 208.454 43.0907 207.814 41.512C207.217 39.9333 206.299 38.824 205.062 38.184C203.867 37.5013 202.182 37.16 200.006 37.16H195.59C194.225 37.16 193.179 37.288 192.454 37.544C191.771 37.7573 191.302 38.2267 191.046 38.952C190.79 39.6347 190.662 40.7227 190.662 42.216V74.472C190.662 75.9227 190.79 77.0107 191.046 77.736C191.302 78.4613 191.771 78.952 192.454 79.208C193.179 79.4213 194.225 79.528 195.59 79.528H199.75C202.182 79.528 204.102 79.144 205.51 78.376C206.961 77.608 208.049 76.3493 208.774 74.6C209.542 72.8507 210.118 70.4613 210.502 67.432H211.974C211.846 68.6693 211.782 70.2907 211.782 72.296C211.782 73.1493 211.803 74.3867 211.846 76.008C211.931 77.6293 212.059 79.2933 212.23 81C210.054 80.9147 207.601 80.872 204.87 80.872C202.139 80.8293 199.707 80.808 197.574 80.808C196.593 80.808 195.334 80.808 193.798 80.808C192.262 80.808 190.598 80.8293 188.806 80.872C187.057 80.872 185.265 80.8933 183.43 80.936C181.638 80.936 179.91 80.9573 178.246 81V79.72C179.697 79.6347 180.785 79.464 181.51 79.208C182.235 78.952 182.705 78.44 182.918 77.672C183.174 76.904 183.302 75.752 183.302 74.216V42.472C183.302 40.8933 183.174 39.7413 182.918 39.016C182.705 38.248 182.214 37.736 181.446 37.48C180.721 37.1813 179.654 37.0107 178.246 36.968V35.688C179.91 35.7307 181.638 35.7733 183.43 35.816C185.265 35.816 187.057 35.8373 188.806 35.88C190.598 35.88 192.262 35.88 193.798 35.88C195.334 35.88 196.593 35.88 197.574 35.88C199.537 35.88 201.755 35.88 204.23 35.88C206.747 35.8373 208.987 35.7733 210.95 35.688ZM200.326 57.576C200.326 57.576 200.326 57.7893 200.326 58.216C200.326 58.6427 200.326 58.856 200.326 58.856H188.742C188.742 58.856 188.742 58.6427 188.742 58.216C188.742 57.7893 188.742 57.576 188.742 57.576H200.326ZM202.182 49.128C202.011 51.56 201.926 53.416 201.926 54.696C201.969 55.976 201.99 57.1493 201.99 58.216C201.99 59.2827 202.011 60.456 202.054 61.736C202.097 63.016 202.203 64.872 202.374 67.304H200.902C200.689 65.896 200.411 64.552 200.07 63.272C199.729 61.9493 199.11 60.8827 198.214 60.072C197.361 59.2613 196.017 58.856 194.182 58.856V57.576C195.547 57.576 196.614 57.2987 197.382 56.744C198.193 56.1893 198.811 55.464 199.238 54.568C199.665 53.672 199.963 52.7547 200.134 51.816C200.347 50.8347 200.539 49.9387 200.71 49.128H202.182Z" fill="#668898"/>
<path d="M135.4 104.24C140.627 104.24 145.213 105.387 149.16 107.68C153.16 109.973 156.253 113.28 158.44 117.6C160.627 121.867 161.72 127.067 161.72 133.2C161.72 139.173 160.6 144.4 158.36 148.88C156.12 153.36 153 156.853 149 159.36C145 161.867 140.44 163.12 135.32 163.12C130.04 163.12 125.427 161.973 121.48 159.68C117.533 157.387 114.467 154.08 112.28 149.76C110.093 145.44 109 140.24 109 134.16C109 128.187 110.12 122.96 112.36 118.48C114.653 114 117.773 110.507 121.72 108C125.667 105.493 130.227 104.24 135.4 104.24ZM135.08 105.68C131.773 105.68 128.893 106.88 126.44 109.28C123.987 111.68 122.093 114.987 120.76 119.2C119.427 123.413 118.76 128.293 118.76 133.84C118.76 139.493 119.507 144.427 121 148.64C122.493 152.8 124.52 156.027 127.08 158.32C129.64 160.56 132.493 161.68 135.64 161.68C138.947 161.68 141.8 160.48 144.2 158.08C146.653 155.68 148.547 152.373 149.88 148.16C151.267 143.893 151.96 139.013 151.96 133.52C151.96 127.813 151.187 122.88 149.64 118.72C148.147 114.56 146.12 111.36 143.56 109.12C141.053 106.827 138.227 105.68 135.08 105.68ZM148.68 111.28L149.88 112.88L122.04 155.84L120.6 154.4L148.68 111.28ZM119.88 154.4L121.32 155.84L112.92 168L111.24 166.88L119.88 154.4ZM157 100L158.52 101.04L150.44 112.88L149.24 111.28L157 100ZM207.289 116.688V117.968C206.436 118.181 205.518 118.757 204.537 119.696C203.598 120.635 202.724 122.149 201.913 124.24L187.385 162.256C187.214 162.256 187.044 162.256 186.873 162.256C186.702 162.256 186.51 162.256 186.297 162.256C186.126 162.256 185.956 162.256 185.785 162.256C185.614 162.256 185.444 162.256 185.273 162.256L169.401 122.064C168.761 120.485 168.057 119.419 167.289 118.864C166.521 118.309 165.796 118.011 165.113 117.968V116.688C166.094 116.731 167.289 116.773 168.697 116.816C170.148 116.859 171.556 116.88 172.921 116.88C174.67 116.88 176.313 116.859 177.849 116.816C179.428 116.773 180.686 116.731 181.625 116.688V117.968C180.217 118.011 179.129 118.181 178.361 118.48C177.593 118.779 177.166 119.312 177.081 120.08C177.038 120.805 177.294 121.893 177.849 123.344L189.689 154.256L188.537 155.536L198.905 128.272C199.886 125.669 200.377 123.643 200.377 122.192C200.377 120.699 199.908 119.632 198.969 118.992C198.03 118.352 196.665 118.011 194.873 117.968V116.688C196.196 116.731 197.497 116.773 198.777 116.816C200.057 116.859 201.273 116.88 202.425 116.88C203.492 116.88 204.409 116.859 205.177 116.816C205.945 116.773 206.649 116.731 207.289 116.688ZM226.846 116.688V117.968C225.395 118.011 224.286 118.181 223.518 118.48C222.793 118.736 222.302 119.248 222.046 120.016C221.79 120.741 221.662 121.893 221.662 123.472V155.472C221.662 156.923 221.769 158.011 221.982 158.736C222.238 159.461 222.707 159.952 223.39 160.208C224.115 160.421 225.139 160.528 226.462 160.528H230.622C232.457 160.528 233.993 160.272 235.23 159.76C236.51 159.248 237.577 158.48 238.43 157.456C239.283 156.432 239.945 155.109 240.414 153.488C240.883 151.867 241.246 149.968 241.502 147.792H242.974C242.846 149.157 242.782 150.949 242.782 153.168C242.782 154.021 242.803 155.28 242.846 156.944C242.931 158.565 243.059 160.251 243.23 162C241.054 161.915 238.601 161.872 235.87 161.872C233.139 161.829 230.707 161.808 228.574 161.808C227.593 161.808 226.334 161.808 224.798 161.808C223.262 161.808 221.598 161.829 219.806 161.872C218.057 161.872 216.265 161.893 214.43 161.936C212.638 161.936 210.91 161.957 209.246 162V160.72C210.697 160.635 211.785 160.464 212.51 160.208C213.235 159.952 213.705 159.44 213.918 158.672C214.174 157.904 214.302 156.752 214.302 155.216V123.472C214.302 121.893 214.174 120.741 213.918 120.016C213.705 119.248 213.214 118.736 212.446 118.48C211.721 118.181 210.654 118.011 209.246 117.968V116.688C210.227 116.731 211.486 116.773 213.022 116.816C214.601 116.859 216.286 116.88 218.078 116.88C219.699 116.88 221.299 116.859 222.878 116.816C224.499 116.773 225.822 116.731 226.846 116.688ZM264.843 116.688V117.968C263.435 118.011 262.368 118.181 261.643 118.48C260.918 118.736 260.427 119.248 260.171 120.016C259.915 120.741 259.787 121.893 259.787 123.472V155.216C259.787 156.752 259.915 157.904 260.171 158.672C260.427 159.44 260.918 159.952 261.643 160.208C262.368 160.464 263.435 160.635 264.843 160.72V162C263.819 161.915 262.518 161.872 260.939 161.872C259.403 161.829 257.824 161.808 256.203 161.808C254.411 161.808 252.726 161.829 251.147 161.872C249.611 161.872 248.352 161.915 247.371 162V160.72C248.822 160.635 249.91 160.464 250.635 160.208C251.36 159.952 251.83 159.44 252.043 158.672C252.299 157.904 252.427 156.752 252.427 155.216V123.472C252.427 121.893 252.299 120.741 252.043 120.016C251.83 119.248 251.339 118.736 250.571 118.48C249.846 118.181 248.779 118.011 247.371 117.968V116.688C248.352 116.731 249.611 116.773 251.147 116.816C252.726 116.859 254.411 116.88 256.203 116.88C257.824 116.88 259.403 116.859 260.939 116.816C262.518 116.773 263.819 116.731 264.843 116.688ZM284.273 115.92C286.534 115.92 288.262 116.176 289.457 116.688C290.651 117.2 291.697 117.755 292.593 118.352C293.105 118.651 293.51 118.885 293.809 119.056C294.15 119.184 294.47 119.248 294.769 119.248C295.195 119.248 295.494 119.013 295.665 118.544C295.878 118.075 296.049 117.371 296.177 116.432H297.649C297.606 117.2 297.542 118.117 297.457 119.184C297.414 120.208 297.371 121.573 297.329 123.28C297.329 124.987 297.329 127.227 297.329 130H295.857C295.729 127.909 295.259 125.883 294.449 123.92C293.681 121.957 292.529 120.357 290.993 119.12C289.499 117.883 287.579 117.264 285.233 117.264C283.057 117.264 281.243 117.925 279.793 119.248C278.385 120.528 277.681 122.235 277.681 124.368C277.681 126.245 278.15 127.824 279.089 129.104C280.027 130.341 281.307 131.515 282.929 132.624C284.593 133.691 286.47 134.885 288.561 136.208C290.694 137.573 292.614 138.939 294.321 140.304C296.027 141.627 297.371 143.099 298.353 144.72C299.334 146.341 299.825 148.304 299.825 150.608C299.825 153.381 299.163 155.685 297.841 157.52C296.561 159.312 294.833 160.656 292.657 161.552C290.481 162.448 288.091 162.896 285.489 162.896C283.099 162.896 281.201 162.64 279.793 162.128C278.385 161.616 277.19 161.083 276.209 160.528C275.27 159.931 274.545 159.632 274.033 159.632C273.606 159.632 273.286 159.867 273.073 160.336C272.902 160.805 272.753 161.509 272.625 162.448H271.153C271.238 161.509 271.281 160.421 271.281 159.184C271.323 157.904 271.345 156.24 271.345 154.192C271.387 152.144 271.409 149.563 271.409 146.448H272.881C273.051 149.093 273.521 151.568 274.289 153.872C275.099 156.176 276.315 158.032 277.937 159.44C279.601 160.805 281.798 161.488 284.529 161.488C285.979 161.488 287.323 161.211 288.561 160.656C289.798 160.101 290.801 159.227 291.569 158.032C292.337 156.837 292.721 155.301 292.721 153.424C292.721 151.675 292.294 150.139 291.441 148.816C290.63 147.493 289.478 146.277 287.985 145.168C286.534 144.016 284.827 142.843 282.865 141.648C280.859 140.368 278.982 139.088 277.233 137.808C275.483 136.528 274.075 135.035 273.009 133.328C271.985 131.621 271.473 129.595 271.473 127.248C271.473 124.645 272.07 122.512 273.265 120.848C274.502 119.184 276.081 117.947 278.001 117.136C279.963 116.325 282.054 115.92 284.273 115.92ZM338.013 116.688C337.842 118.309 337.714 119.888 337.629 121.424C337.586 122.917 337.565 124.069 337.565 124.88C337.565 125.691 337.586 126.459 337.629 127.184C337.671 127.909 337.714 128.507 337.757 128.976H336.285C335.986 126.245 335.517 124.091 334.877 122.512C334.279 120.933 333.362 119.824 332.125 119.184C330.93 118.501 329.245 118.16 327.069 118.16H322.653C321.287 118.16 320.242 118.288 319.517 118.544C318.834 118.757 318.365 119.227 318.109 119.952C317.853 120.635 317.725 121.723 317.725 123.216V155.472C317.725 156.923 317.853 158.011 318.109 158.736C318.365 159.461 318.834 159.952 319.517 160.208C320.242 160.421 321.287 160.528 322.653 160.528H326.813C329.245 160.528 331.165 160.144 332.573 159.376C334.023 158.608 335.111 157.349 335.837 155.6C336.605 153.851 337.181 151.461 337.565 148.432H339.037C338.909 149.669 338.845 151.291 338.845 153.296C338.845 154.149 338.866 155.387 338.909 157.008C338.994 158.629 339.122 160.293 339.293 162C337.117 161.915 334.663 161.872 331.933 161.872C329.202 161.829 326.77 161.808 324.637 161.808C323.655 161.808 322.397 161.808 320.861 161.808C319.325 161.808 317.661 161.829 315.869 161.872C314.119 161.872 312.327 161.893 310.493 161.936C308.701 161.936 306.973 161.957 305.309 162V160.72C306.759 160.635 307.847 160.464 308.573 160.208C309.298 159.952 309.767 159.44 309.981 158.672C310.237 157.904 310.365 156.752 310.365 155.216V123.472C310.365 121.893 310.237 120.741 309.981 120.016C309.767 119.248 309.277 118.736 308.509 118.48C307.783 118.181 306.717 118.011 305.309 117.968V116.688C306.973 116.731 308.701 116.773 310.493 116.816C312.327 116.816 314.119 116.837 315.869 116.88C317.661 116.88 319.325 116.88 320.861 116.88C322.397 116.88 323.655 116.88 324.637 116.88C326.599 116.88 328.818 116.88 331.293 116.88C333.81 116.837 336.05 116.773 338.013 116.688ZM327.389 138.576C327.389 138.576 327.389 138.789 327.389 139.216C327.389 139.643 327.389 139.856 327.389 139.856H315.805C315.805 139.856 315.805 139.643 315.805 139.216C315.805 138.789 315.805 138.576 315.805 138.576H327.389ZM329.245 130.128C329.074 132.56 328.989 134.416 328.989 135.696C329.031 136.976 329.053 138.149 329.053 139.216C329.053 140.283 329.074 141.456 329.117 142.736C329.159 144.016 329.266 145.872 329.437 148.304H327.965C327.751 146.896 327.474 145.552 327.133 144.272C326.791 142.949 326.173 141.883 325.277 141.072C324.423 140.261 323.079 139.856 321.245 139.856V138.576C322.61 138.576 323.677 138.299 324.445 137.744C325.255 137.189 325.874 136.464 326.301 135.568C326.727 134.672 327.026 133.755 327.197 132.816C327.41 131.835 327.602 130.939 327.773 130.128H329.245ZM385.705 116.688V117.968C384.254 118.053 383.166 118.309 382.441 118.736C381.715 119.163 381.225 119.867 380.969 120.848C380.755 121.787 380.649 123.131 380.649 124.88V162.256C380.307 162.256 379.966 162.256 379.625 162.256C379.283 162.256 378.921 162.256 378.537 162.256L351.401 122.832V153.552C351.401 155.344 351.529 156.752 351.785 157.776C352.041 158.757 352.595 159.461 353.449 159.888C354.302 160.315 355.603 160.592 357.353 160.72V162C356.542 161.915 355.497 161.872 354.217 161.872C352.979 161.829 351.806 161.808 350.697 161.808C349.63 161.808 348.563 161.829 347.497 161.872C346.43 161.872 345.555 161.915 344.873 162V160.72C346.281 160.592 347.347 160.336 348.073 159.952C348.798 159.525 349.289 158.821 349.545 157.84C349.801 156.859 349.929 155.515 349.929 153.808V123.472C349.929 121.893 349.801 120.741 349.545 120.016C349.289 119.248 348.798 118.736 348.073 118.48C347.347 118.181 346.281 118.011 344.873 117.968V116.688C345.555 116.731 346.43 116.773 347.497 116.816C348.563 116.859 349.63 116.88 350.697 116.88C351.635 116.88 352.553 116.859 353.449 116.816C354.345 116.773 355.134 116.731 355.817 116.688L379.177 150.096V125.136C379.177 123.301 379.027 121.893 378.729 120.912C378.473 119.931 377.918 119.227 377.065 118.8C376.211 118.331 374.931 118.053 373.225 117.968V116.688C373.993 116.731 375.017 116.773 376.297 116.816C377.577 116.859 378.771 116.88 379.881 116.88C380.947 116.88 382.014 116.859 383.081 116.816C384.147 116.773 385.022 116.731 385.705 116.688Z" fill="#668898"/>
</svg>
